<svg width="32" height="32" viewBox="0 0 32 32" fill="none" xmlns="http://www.w3.org/2000/svg">
<path d="M5 7C5 4.79086 6.79086 3 9 3H25C27.2091 3 29 4.79086 29 7V25C29 27.2091 27.2091 29 25 29H9C6.79086 29 5 27.2091 5 25V7Z" fill="#E4D6DE"/>
<path fill-rule="evenodd" clip-rule="evenodd" d="M4.75 7C4.75 4.65279 6.65279 2.75 9 2.75H25C27.3472 2.75 29.25 4.65279 29.25 7V25C29.25 27.3472 27.3472 29.25 25 29.25H9C6.65279 29.25 4.75 27.3472 4.75 25V7ZM9 3.25C6.92893 3.25 5.25 4.92893 5.25 7V25C5.25 27.0711 6.92893 28.75 9 28.75H25C27.0711 28.75 28.75 27.0711 28.75 25V7C28.75 4.92893 27.0711 3.25 25 3.25H9Z" fill="black"/>
<path d="M7 9C7 6.79086 8.79086 5 11 5H23C25.2091 5 27 6.79086 27 9V23C27 25.2091 25.2091 27 23 27H11C8.79086 27 7 25.2091 7 23V9Z" fill="url(#paint0_linear_1_2)"/>
<path fill-rule="evenodd" clip-rule="evenodd" d="M6.75 9C6.75 6.65279 8.65279 4.75 11 4.75H23C25.3472 4.75 27.25 6.65279 27.25 9V23C27.25 25.3472 25.3472 27.25 23 27.25H11C8.65279 27.25 6.75 25.3472 6.75 23V9ZM11 5.25C8.92893 5.25 7.25 6.92893 7.25 9V23C7.25 25.0711 8.92893 26.75 11 26.75H23C25.0711 26.75 26.75 25.0711 26.75 23V9C26.75 6.92893 25.0711 5.25 23 5.25H11Z" fill="black"/>
<path d="M16 3H18V29H16V3Z" fill="#48A5B4"/>
<path fill-rule="evenodd" clip-rule="evenodd" d="M17.5 3.5H16.5V28.5H17.5V3.5ZM16 3V29H18V3H16Z" fill="black"/>
<path d="M5 17V15L29 15V17H5Z" fill="#48A5B4"/>
<path fill-rule="evenodd" clip-rule="evenodd" d="M5.5 15.5V16.5H28.5V15.5L5.5 15.5ZM5 17H29V15L5 15V17Z" fill="black"/>
<path fill-rule="evenodd" clip-rule="evenodd" d="M4 8.5H6V9H4V8.5Z" fill="black"/>
<path fill-rule="evenodd" clip-rule="evenodd" d="M4 12.5H6V13H4V12.5Z" fill="black"/>
<path fill-rule="evenodd" clip-rule="evenodd" d="M4 16.5H6V17H4V16.5Z" fill="black"/>
<path fill-rule="evenodd" clip-rule="evenodd" d="M4 20.5H6V21H4V20.5Z" fill="black"/>
<path fill-rule="evenodd" clip-rule="evenodd" d="M4 24.5H6V25H4V24.5Z" fill="black"/>
<path fill-rule="evenodd" clip-rule="evenodd" d="M13 7.5H9V7H13V7.5Z" fill="white"/>
<path fill-rule="evenodd" clip-rule="evenodd" d="M13 9H9V8.5H13V9Z" fill="white"/>
<path fill-rule="evenodd" clip-rule="evenodd" d="M13 10.5H9V10H13V10.5Z" fill="white"/>
<path fill-rule="evenodd" clip-rule="evenodd" d="M25 7.5H21V7H25V7.5Z" fill="white"/>
<path fill-rule="evenodd" clip-rule="evenodd" d="M25 9H21V8.5H25V9Z" fill="white"/>
<path fill-rule="evenodd" clip-rule="evenodd" d="M25 10.5H21V10H25V10.5Z" fill="white"/>
<path fill-rule="evenodd" clip-rule="evenodd" d="M13 22.5H9V22H13V22.5Z" fill="white"/>
<path fill-rule="evenodd" clip-rule="evenodd" d="M13 24H9V23.5H13V24Z" fill="white"/>
<path fill-rule="evenodd" clip-rule="evenodd" d="M13 25.5H9V25H13V25.5Z" fill="white"/>
<path fill-rule="evenodd" clip-rule="evenodd" d="M25 22.5H21V22H25V22.5Z" fill="white"/>
<path fill-rule="evenodd" clip-rule="evenodd" d="M25 24H21V23.5H25V24Z" fill="white"/>
<path fill-rule="evenodd" clip-rule="evenodd" d="M25 25.5H21V25H25V25.5Z" fill="white"/>
<path d="M17 6C21.9706 6 26 10.4772 26 16C26 21.5228 21.9706 26 17 26C12.0294 26 8 21.5228 8 16C8 10.4772 12.0294 6 17 6Z" fill="url(#paint1_linear_1_2)"/>
<path fill-rule="evenodd" clip-rule="evenodd" d="M25.5 16C25.5 10.7024 21.6462 6.5 17 6.5C12.3538 6.5 8.5 10.7024 8.5 16C8.5 21.2976 12.3538 25.5 17 25.5C21.6462 25.5 25.5 21.2976 25.5 16ZM26 16C26 10.4772 21.9706 6 17 6C12.0294 6 8 10.4772 8 16C8 21.5228 12.0294 26 17 26C21.9706 26 26 21.5228 26 16Z" fill="black"/>
<path d="M24 16C24 20.4183 20.866 24 17 24C13.134 24 10 20.4183 10 16C10 11.5817 13.134 8 17 8C20.866 8 24 11.5817 24 16Z" fill="#55719B"/>
<path fill-rule="evenodd" clip-rule="evenodd" d="M17 23.5C20.5292 23.5 23.5 20.2069 23.5 16C23.5 11.7931 20.5292 8.5 17 8.5C13.4708 8.5 10.5 11.7931 10.5 16C10.5 20.2069 13.4708 23.5 17 23.5ZM17 24C20.866 24 24 20.4183 24 16C24 11.5817 20.866 8 17 8C13.134 8 10 11.5817 10 16C10 20.4183 13.134 24 17 24Z" fill="black"/>
<path d="M10.3562 12.8762H8V11.12H14.0068V12.8762H11.6506V20.9937H10.3562V12.8762Z" fill="#E4D6DE"/>
<path fill-rule="evenodd" clip-rule="evenodd" d="M7 13.8762V10.12H15.0068V13.8762H12.6506V21.9937H9.35617V13.8762H7ZM10.3562 12.8762V20.9937H11.6506V12.8762H14.0068V11.12H8V12.8762H10.3562Z" fill="black"/>
<path d="M14.1579 19.2754L16.4079 16.8876C16.7455 16.5296 17.0218 16.2179 17.2368 15.9526C17.4519 15.6873 17.6207 15.4515 17.7432 15.2451C17.8657 15.0345 17.9501 14.845 17.9964 14.6766C18.0426 14.5081 18.0658 14.3397 18.0658 14.1712C18.0658 13.9775 18.0399 13.7964 17.9882 13.6279C17.9365 13.4595 17.8548 13.3121 17.7432 13.1857C17.6343 13.0594 17.4927 12.9604 17.3185 12.8888C17.147 12.8172 16.9415 12.7814 16.7019 12.7814C16.3534 12.7814 16.0064 12.8572 15.6606 13.0088C15.3149 13.1605 14.9623 13.4026 14.603 13.7353L14.0068 12.2192C14.407 11.836 14.8398 11.537 15.3054 11.3222C15.7736 11.1074 16.265 11 16.7795 11C17.2287 11 17.618 11.0842 17.9474 11.2527C18.2795 11.4169 18.5531 11.6422 18.7681 11.9286C18.9859 12.215 19.1479 12.5477 19.2541 12.9267C19.3603 13.3057 19.4133 13.7079 19.4133 14.1333C19.4133 14.4618 19.3779 14.7755 19.3072 15.0745C19.2364 15.3736 19.1125 15.6831 18.9356 16.0032C18.7586 16.3232 18.5191 16.6686 18.2169 17.0392C17.9174 17.4056 17.539 17.8225 17.0817 18.29L16.1506 19.2375H19.6461V20.9937H14.1579V19.2754Z" fill="#E4D6DE"/>
<path fill-rule="evenodd" clip-rule="evenodd" d="M13.1579 18.8785L15.6801 16.2018C16.0073 15.8548 16.2658 15.5625 16.46 15.3229C16.6545 15.0829 16.7912 14.8892 16.8811 14.7384C16.9742 14.5777 17.0158 14.4708 17.0321 14.4117C17.0555 14.3263 17.0658 14.2469 17.0658 14.1712C17.0658 14.0672 17.052 13.9859 17.0322 13.9214C17.0204 13.8828 17.0068 13.8626 16.9937 13.8478L16.986 13.8391C16.9853 13.8385 16.9842 13.8376 16.9824 13.8363C16.977 13.8325 16.9636 13.8241 16.9384 13.8138L16.9333 13.8117C16.9135 13.8034 16.8458 13.7814 16.7019 13.7814C16.5029 13.7814 16.292 13.8239 16.0622 13.9247C15.8438 14.0204 15.5829 14.1908 15.2824 14.4691L14.2081 15.4637L12.8307 11.9609L13.3151 11.497C13.7888 11.0433 14.3125 10.6789 14.8864 10.4142L14.8884 10.4132C15.4873 10.1385 16.1209 10 16.7795 10C17.3511 10 17.9007 10.1071 18.3965 10.3592C18.8605 10.5897 19.2552 10.9127 19.566 11.3257C19.866 11.7209 20.0803 12.169 20.217 12.657C20.3497 13.1306 20.4133 13.6241 20.4133 14.1333C20.4133 14.534 20.3701 14.9254 20.2803 15.3049C20.185 15.7074 20.0236 16.1019 19.8107 16.487C19.5977 16.8724 19.321 17.2674 18.9919 17.6711L18.9912 17.672C18.8443 17.8516 18.6819 18.0402 18.5043 18.2375H20.6461V21.9937H13.1579V18.8785ZM16.1506 19.2375L17.0817 18.29C17.0988 18.2724 17.1159 18.2549 17.1328 18.2375C17.5673 17.7913 17.9287 17.3918 18.2169 17.0392C18.519 16.6686 18.7586 16.3232 18.9356 16.0032C19.1125 15.6831 19.2364 15.3736 19.3072 15.0745C19.3779 14.7755 19.4133 14.4618 19.4133 14.1333C19.4133 13.7079 19.3602 13.3057 19.2541 12.9267C19.1479 12.5477 18.9859 12.215 18.7681 11.9286C18.5531 11.6422 18.2795 11.4169 17.9474 11.2527C17.618 11.0842 17.2287 11 16.7795 11C16.265 11 15.7736 11.1074 15.3053 11.3222C14.8398 11.537 14.407 11.836 14.0068 12.2192L14.603 13.7353C14.8847 13.4745 15.1622 13.2694 15.4355 13.1198C15.5108 13.0786 15.5859 13.0416 15.6606 13.0088C16.0063 12.8572 16.3534 12.7814 16.7019 12.7814C16.9415 12.7814 17.147 12.8172 17.3185 12.8888C17.4927 12.9604 17.6343 13.0594 17.7432 13.1857C17.8548 13.3121 17.9365 13.4595 17.9882 13.6279C18.0399 13.7964 18.0658 13.9775 18.0658 14.1712C18.0658 14.3397 18.0426 14.5081 17.9964 14.6766C17.9501 14.845 17.8657 15.0345 17.7432 15.2451C17.6207 15.4515 17.4519 15.6873 17.2368 15.9526C17.0218 16.2179 16.7455 16.5296 16.4079 16.8876L14.1579 19.2754V20.9937H19.6461V19.2375H16.1506Z" fill="black"/>
<path d="M19.6461 11.12H21.9859C22.6692 11.12 23.2627 11.2337 23.7663 11.4611C24.27 11.6885 24.6865 12.0149 25.0159 12.4403C25.348 12.8614 25.5944 13.3752 25.755 13.9817C25.9183 14.5839 26 15.2619 26 16.0158C26 16.7317 25.9197 17.395 25.7591 18.0057C25.5984 18.6121 25.3534 19.1385 25.024 19.5849C24.6946 20.0271 24.2781 20.3746 23.7745 20.6273C23.2709 20.8757 22.6774 21 21.9941 21L19.6461 20.9937V11.12ZM22.3044 19.2628C22.691 19.2628 23.0299 19.187 23.3212 19.0353C23.6125 18.8795 23.8548 18.6605 24.0481 18.3784C24.2441 18.0962 24.3911 17.7551 24.4891 17.355C24.5871 16.9549 24.6361 16.5085 24.6361 16.0158C24.6361 15.5314 24.5871 15.0956 24.4891 14.7081C24.3911 14.3165 24.2441 13.9859 24.0481 13.7163C23.8548 13.4426 23.6125 13.232 23.3212 13.0846C23.0299 12.9372 22.691 12.8635 22.3044 12.8635H20.9406V19.2628H22.3044Z" fill="#E4D6DE"/>
<path fill-rule="evenodd" clip-rule="evenodd" d="M18.6461 10.12H21.9859C22.7785 10.12 23.5181 10.2518 24.1779 10.5497C24.8248 10.8419 25.372 11.2681 25.8038 11.8245C26.2317 12.3682 26.5315 13.009 26.7209 13.7227C26.911 14.4251 27 15.1923 27 16.0158C27 16.8063 26.9113 17.5561 26.7262 18.26L26.7257 18.2617C26.5371 18.9741 26.242 19.6185 25.8287 20.1787L25.826 20.1823C25.4014 20.7523 24.8627 21.2001 24.2229 21.5211L24.2169 21.5241C23.5491 21.8536 22.7981 22 21.9941 22H21.9914L18.6461 21.991V10.12ZM25.0159 12.4403C24.6865 12.0149 24.27 11.6885 23.7663 11.4611C23.2627 11.2337 22.6692 11.12 21.9859 11.12H19.6461V20.9937L21.9941 21C22.6774 21 23.2709 20.8757 23.7745 20.6273C24.2781 20.3746 24.6946 20.0271 25.024 19.5849C25.3534 19.1385 25.5984 18.6121 25.7591 18.0057C25.9197 17.395 26 16.7317 26 16.0158C26 15.2619 25.9183 14.5839 25.755 13.9817C25.5944 13.3752 25.348 12.8614 25.0159 12.4403ZM24.0481 18.3784C24.2441 18.0962 24.3911 17.7551 24.4891 17.355C24.5871 16.9549 24.6361 16.5085 24.6361 16.0158C24.6361 15.5314 24.5871 15.0956 24.4891 14.7081C24.3911 14.3165 24.2441 13.9859 24.0481 13.7163C23.8548 13.4426 23.6125 13.232 23.3212 13.0846C23.0299 12.9372 22.691 12.8635 22.3044 12.8635H20.9406V19.2628H22.3044C22.691 19.2628 23.0299 19.187 23.3212 19.0353C23.6125 18.8795 23.8548 18.6605 24.0481 18.3784ZM22.8547 18.1508C22.9972 18.0736 23.1184 17.966 23.2231 17.8132L23.2268 17.8078C23.3404 17.6442 23.4433 17.4211 23.5178 17.1171C23.5935 16.8083 23.6361 16.4435 23.6361 16.0158C23.6361 15.5974 23.5936 15.2458 23.5196 14.9533L23.519 14.9509C23.4457 14.658 23.3458 14.4509 23.2393 14.3045L23.2311 14.2932C23.1294 14.1492 23.0113 14.0485 22.8697 13.9769C22.742 13.9122 22.5629 13.8635 22.3044 13.8635H21.9406V18.2628H22.3044C22.5555 18.2628 22.7296 18.2148 22.8547 18.1508Z" fill="black"/>
<defs>
<linearGradient id="paint0_linear_1_2" x1="17" y1="5" x2="17" y2="27" gradientUnits="userSpaceOnUse">
<stop stop-color="#48A5B4"/>
<stop offset="1" stop-color="#55719B"/>
</linearGradient>
<linearGradient id="paint1_linear_1_2" x1="8" y1="16" x2="26" y2="16" gradientUnits="userSpaceOnUse">
<stop stop-color="#E4D6DE"/>
<stop offset="1" stop-color="#304067"/>
</linearGradient>
</defs>
</svg>
